<?xml version="1.0" standalone="no"?>
<!DOCTYPE svg PUBLIC "-//W3C//DTD SVG 20010904//EN"
 "http://www.w3.org/TR/2001/REC-SVG-20010904/DTD/svg10.dtd">
<svg version="1.0" xmlns="http://www.w3.org/2000/svg"
 width="512.000000pt" height="512.000000pt" viewBox="0 0 512.000000 512.000000"
 preserveAspectRatio="xMidYMid meet">
<metadata>
Created by potrace 1.14, written by Peter Selinger 2001-2017
</metadata>
<g transform="translate(0.000000,512.000000) scale(0.100000,-0.100000)"
fill="#000000" stroke="none">
<path d="M2223 4770 c-36 -15 -43 -43 -43 -180 0 -126 1 -132 25 -155 22 -22
32 -25 105 -25 l81 0 -3 -127 -3 -127 -104 -18 c-239 -40 -516 -146 -702 -271
-25 -17 -27 -17 -52 9 -24 24 -25 28 -12 47 8 12 15 27 15 33 0 7 -56 76 -125
153 -101 113 -131 141 -152 141 -17 0 -66 -31 -147 -92 -248 -188 -306 -238
-306 -260 0 -21 58 -92 185 -226 66 -70 71 -74 106 -69 32 4 42 0 68 -27 17
-18 31 -36 31 -40 0 -4 -18 -28 -40 -53 -67 -76 -168 -237 -230 -366 -213
-441 -245 -914 -95 -1382 46 -142 157 -364 242 -485 100 -141 341 -379 473
-466 499 -331 1071 -411 1629 -228 236 77 495 229 654 382 l47 46 0 173 c0 94
-4 174 -8 177 -5 3 -37 -27 -71 -67 -228 -262 -544 -447 -889 -519 -92 -20
-137 -23 -322 -22 -184 0 -230 3 -316 22 -639 139 -1107 611 -1246 1255 -18
86 -22 134 -22 307 0 221 12 306 70 493 36 117 141 327 215 432 73 103 254
289 347 355 216 155 447 253 702 297 126 22 382 22 510 0 252 -43 493 -146
702 -299 46 -33 134 -112 196 -176 89 -91 115 -113 123 -102 5 8 9 88 9 177
l0 163 -92 77 c-248 206 -549 348 -858 405 l-120 22 0 128 0 128 84 0 c69 0
88 4 110 21 26 20 26 21 26 164 0 203 40 185 -414 184 -198 0 -371 -4 -383 -9z"/>
<path d="M2530 3455 l0 -215 55 0 55 0 0 215 0 215 -55 0 -55 0 0 -215z"/>
<path d="M3165 3439 c-26 -44 -48 -87 -49 -96 -1 -14 64 -62 84 -63 3 0 30 41
59 91 58 100 59 93 -11 129 l-36 20 -47 -81z"/>
<path d="M1898 3488 c-21 -12 -38 -26 -38 -32 0 -16 93 -176 103 -176 5 0 27
10 49 22 29 16 38 27 34 41 -8 33 -89 167 -100 167 -6 0 -28 -10 -48 -22z"/>
<path d="M1416 3015 c-36 -55 -37 -73 -8 -93 55 -38 144 -83 156 -79 6 3 21
23 34 45 l22 40 -47 30 c-27 16 -69 41 -94 56 l-46 26 -17 -25z"/>
<path d="M3628 2984 c-43 -24 -78 -51 -78 -59 0 -19 40 -85 52 -85 10 0 129
68 162 93 19 14 18 15 -4 55 -13 23 -31 42 -39 42 -9 0 -51 -21 -93 -46z"/>
<path d="M2524 2451 c-59 -27 -89 -74 -89 -138 0 -37 6 -60 21 -80 28 -38 82
-73 112 -73 17 0 72 -44 200 -162 427 -396 575 -527 535 -475 -6 6 -134 174
-285 373 l-275 360 -5 57 c-10 119 -113 186 -214 138z"/>
<path d="M1228 2353 c-2 -10 -1 -36 2 -58 l5 -40 205 0 205 0 3 58 3 57 -209
0 c-192 0 -210 -2 -214 -17z"/>
<path d="M3516 2354 c-10 -26 -7 -69 7 -87 11 -16 33 -17 212 -15 l200 3 3 58
3 57 -209 0 c-182 0 -211 -2 -216 -16z"/>
<path d="M1475 1735 c-44 -25 -84 -50 -88 -54 -11 -11 39 -91 56 -91 14 0 163
85 171 98 6 9 -41 92 -52 92 -4 0 -43 -20 -87 -45z"/>
<path d="M3592 1768 c-18 -23 -44 -80 -38 -85 2 -3 42 -27 88 -53 91 -54 96
-54 129 11 l19 38 -89 50 c-49 28 -91 51 -93 51 -3 0 -10 -6 -16 -12z"/>
<path d="M2532 1168 l3 -213 50 0 50 0 3 213 2 212 -55 0 -55 0 2 -212z"/>
<path d="M3147 1324 l-38 -25 41 -77 c58 -107 62 -111 105 -88 20 11 40 24 45
31 11 13 -85 185 -103 185 -7 0 -29 -12 -50 -26z"/>
<path d="M1922 1273 c-69 -119 -67 -109 -25 -138 21 -14 43 -25 50 -25 11 0
60 75 97 147 l16 32 -37 26 c-21 14 -43 25 -50 25 -7 0 -30 -30 -51 -67z"/>
</g>
</svg>
