<?xml version="1.0" standalone="no"?>
<!DOCTYPE svg PUBLIC "-//W3C//DTD SVG 20010904//EN"
 "http://www.w3.org/TR/2001/REC-SVG-20010904/DTD/svg10.dtd">
<svg version="1.0" xmlns="http://www.w3.org/2000/svg"
 width="512.000000pt" height="512.000000pt" viewBox="0 0 512.000000 512.000000"
 preserveAspectRatio="xMidYMid meet">
<metadata>
Created by potrace 1.14, written by Peter Selinger 2001-2017
</metadata>
<g transform="translate(0.000000,512.000000) scale(0.100000,-0.100000)"
fill="#000000" stroke="none">
<path d="M2669 4952 c-398 -2 -406 -3 -425 -23 -17 -18 -19 -40 -21 -170 -2
-143 -2 -149 21 -176 22 -26 29 -28 112 -29 l89 -1 3 -142 c1 -77 -1 -141 -5
-141 -5 0 -49 -7 -98 -15 -254 -41 -517 -139 -738 -274 -55 -33 -71 -39 -87
-31 -32 17 -44 48 -25 66 25 25 16 52 -40 113 -18 20 -56 63 -85 96 -89 101
-147 155 -167 155 -15 0 -436 -312 -479 -354 -24 -25 -23 -46 4 -78 39 -48
181 -207 224 -250 37 -37 69 -47 96 -29 10 6 26 -5 54 -35 l40 -43 -53 -63
c-242 -291 -414 -715 -447 -1106 -63 -736 280 -1440 908 -1867 154 -105 498
-255 637 -278 15 -3 48 -10 73 -15 25 -6 64 -13 87 -17 23 -3 57 -8 75 -11 75
-13 378 -12 483 1 419 52 801 224 1119 507 l49 44 0 129 c0 72 -2 162 -3 202
l-3 72 61 93 c185 282 279 582 287 918 7 317 -49 573 -187 844 -38 75 -115
205 -128 216 -23 20 -48 68 -39 77 6 6 11 86 13 189 l2 179 -45 46 c-148 147
-419 312 -665 403 -137 51 -411 117 -448 108 -9 -2 -10 8 -10 166 -1 62 2 115
5 119 4 3 47 7 97 7 79 1 92 4 112 24 21 21 23 32 25 150 1 70 -2 143 -5 162
-14 65 -17 65 -473 62z"/>
</g>
</svg>
