<?xml version="1.0" encoding="UTF-8" standalone="no"?>
<svg
   version="1.0"
   width="512.000000pt"
   height="512.000000pt"
   viewBox="0 0 512.000000 512.000000"
   preserveAspectRatio="xMidYMid meet"
   id="svg14"
   sodipodi:docname="updated.svg"
   inkscape:version="1.3 (0e150ed6c4, 2023-07-21)"
   inkscape:export-filename="white_logo.png"
   inkscape:export-xdpi="200"
   inkscape:export-ydpi="200"
   xmlns:inkscape="http://www.inkscape.org/namespaces/inkscape"
   xmlns:sodipodi="http://sodipodi.sourceforge.net/DTD/sodipodi-0.dtd"
   xmlns="http://www.w3.org/2000/svg"
   xmlns:svg="http://www.w3.org/2000/svg">
  <defs
     id="defs14" />
  <sodipodi:namedview
     id="namedview14"
     pagecolor="#000000"
     bordercolor="#666666"
     borderopacity="0"
     inkscape:showpageshadow="2"
     inkscape:pageopacity="0.0"
     inkscape:pagecheckerboard="true"
     inkscape:deskcolor="#d1d1d1"
     inkscape:document-units="pt"
     showgrid="false"
     showborder="false"
     inkscape:zoom="1.7182617"
     inkscape:cx="496.72294"
     inkscape:cy="315.72606"
     inkscape:window-width="3440"
     inkscape:window-height="1369"
     inkscape:window-x="-8"
     inkscape:window-y="224"
     inkscape:window-maximized="1"
     inkscape:current-layer="g14">
    <inkscape:grid
       id="grid16"
       units="px"
       originx="0"
       originy="0"
       spacingx="0.74999998"
       spacingy="0.74999998"
       empcolor="#0099e5"
       empopacity="0.30196078"
       color="#0099e5"
       opacity="0.14901961"
       empspacing="5"
       dotted="false"
       gridanglex="30"
       gridanglez="30"
       visible="false" />
  </sodipodi:namedview>
  <metadata
     id="metadata1">&#10;Created by potrace 1.14, written by Peter Selinger 2001-2017&#10;</metadata>
  <g
     transform="translate(0.000000,512.000000) scale(0.100000,-0.100000)"
     fill="#000000"
     stroke="none"
     id="g14"
     style="fill:#ffffff;fill-opacity:1"
     inkscape:export-filename="white_logo.png"
     inkscape:export-xdpi="200"
     inkscape:export-ydpi="200">
    <path
       d="m 2582.0947,4170.9131 a 1859.4373,1859.4373 0 0 1 -264.624,-18.9258 1859.4373,1859.4373 0 0 1 -259.2334,-56.3965 1859.4373,1859.4373 0 0 1 -248.5693,-92.7099 1859.4373,1859.4373 0 0 1 -232.8516,-127.1485 1859.4373,1859.4373 0 0 1 -212.3877,-158.9795 1859.4373,1859.4373 0 0 1 -187.6025,-187.6025 1859.4373,1859.4373 0 0 1 -158.9795,-212.3877 1859.4373,1859.4373 0 0 1 -127.14846,-232.8516 1859.4373,1859.4373 0 0 1 -92.70996,-248.5693 1859.4373,1859.4373 0 0 1 -56.39648,-259.2334 1859.4373,1859.4373 0 0 1 -18.92578,-264.624 1859.4373,1859.4373 0 0 1 18.92578,-264.624 1859.4373,1859.4373 0 0 1 56.39648,-259.2481 1859.4373,1859.4373 0 0 1 92.70996,-248.5693 1859.4373,1859.4373 0 0 1 127.14846,-232.8516 1859.4373,1859.4373 0 0 1 158.9795,-212.3877 1859.4373,1859.4373 0 0 1 187.6025,-187.58788 1859.4373,1859.4373 0 0 1 212.3877,-158.99414 1859.4373,1859.4373 0 0 1 232.8516,-127.14844 1859.4373,1859.4373 0 0 1 248.5693,-92.70996 1859.4373,1859.4373 0 0 1 259.2334,-56.39648 1859.4373,1859.4373 0 0 1 264.624,-18.92578 1859.4373,1859.4373 0 0 1 264.6387,18.92578 1859.4373,1859.4373 0 0 1 259.2334,56.39648 1859.4373,1859.4373 0 0 1 248.5693,92.70996 1859.4373,1859.4373 0 0 1 232.8516,127.14844 1859.4373,1859.4373 0 0 1 212.3877,158.99414 1859.4373,1859.4373 0 0 1 187.5879,187.58788 1859.4373,1859.4373 0 0 1 158.9941,212.3877 1859.4373,1859.4373 0 0 1 127.1485,232.8516 1859.4373,1859.4373 0 0 1 92.7099,248.5693 1859.4373,1859.4373 0 0 1 56.3965,259.2481 1859.4373,1859.4373 0 0 1 0.9082,6.416 1859.4373,1859.4373 0 0 1 0.8936,6.416 1859.4373,1859.4373 0 0 1 0.8642,6.416 1859.4373,1859.4373 0 0 1 0.835,6.416 1859.4373,1859.4373 0 0 1 0.8349,6.4307 1859.4373,1859.4373 0 0 1 0.7911,6.416 1859.4373,1859.4373 0 0 1 0.7763,6.4307 1859.4373,1859.4373 0 0 1 0.7617,6.4306 1859.4373,1859.4373 0 0 1 0.7178,6.4453 1859.4373,1859.4373 0 0 1 0.7178,6.4307 1859.4373,1859.4373 0 0 1 0.6885,6.4453 1859.4373,1859.4373 0 0 1 0.6591,6.4453 1859.4373,1859.4373 0 0 1 0.6446,6.4453 1859.4373,1859.4373 0 0 1 0.6152,6.4453 1859.4373,1859.4373 0 0 1 0.6006,6.4454 1859.4373,1859.4373 0 0 1 0.5713,6.4453 1859.4373,1859.4373 0 0 1 0.5566,6.4599 1859.4373,1859.4373 0 0 1 0.5274,6.4453 1859.4373,1859.4373 0 0 1 0.5127,6.46 1859.4373,1859.4373 0 0 1 0.4834,6.46 1859.4373,1859.4373 0 0 1 0.4541,6.4599 1859.4373,1859.4373 0 0 1 0.4394,6.46 1859.4373,1859.4373 0 0 1 0.4248,6.46 1859.4373,1859.4373 0 0 1 0.3955,6.4746 1859.4373,1859.4373 0 0 1 0.3662,6.4599 1859.4373,1859.4373 0 0 1 0.3516,6.46 1859.4373,1859.4373 0 0 1 0.3223,6.4746 1859.4373,1859.4373 0 0 1 0.3076,6.4746 1859.4373,1859.4373 0 0 1 0.2783,6.46 1859.4373,1859.4373 0 0 1 0.2637,6.4746 1859.4373,1859.4373 0 0 1 0.2344,6.4746 1859.4373,1859.4373 0 0 1 0.2197,6.4746 1859.4373,1859.4373 0 0 1 0.1904,6.4746 1859.4373,1859.4373 0 0 1 0.1611,6.4746 1859.4373,1859.4373 0 0 1 0.1465,6.4746 1859.4373,1859.4373 0 0 1 0.1319,6.4746 1859.4373,1859.4373 0 0 1 0.1025,6.4746 1859.4373,1859.4373 0 0 1 0.073,6.4746 1859.4373,1859.4373 0 0 1 0.059,6.4747 1859.4373,1859.4373 0 0 1 0.029,6.4746 1859.4373,1859.4373 0 0 1 0.015,6.4746 1859.4373,1859.4373 0 0 1 -2.2412,91.2304 1859.4373,1859.4373 0 0 1 -6.709,91.0254 1859.4373,1859.4373 0 0 1 -11.1768,90.5713 1859.4373,1859.4373 0 0 1 -15.6006,89.9268 1859.4373,1859.4373 0 0 1 -19.9951,89.0478 1859.4373,1859.4373 0 0 1 -24.3457,87.9639 1859.4373,1859.4373 0 0 1 -28.623,86.6602 1859.4373,1859.4373 0 0 1 -32.8418,85.1513 1859.4373,1859.4373 0 0 1 -36.9873,83.4229 1859.4373,1859.4373 0 0 1 -41.0449,81.5332 1859.4373,1859.4373 0 0 1 -44.9854,79.4092 1859.4373,1859.4373 0 0 1 -48.8232,77.0947 1859.4373,1859.4373 0 0 1 -52.544,74.6191 1859.4373,1859.4373 0 0 1 -56.1474,71.9531 1859.4373,1859.4373 0 0 1 -59.6192,69.1114 1859.4373,1859.4373 0 0 1 -62.9297,66.0937 1859.4373,1859.4373 0 0 1 -66.0937,62.9297 1859.4373,1859.4373 0 0 1 -69.1113,59.6192 1859.4373,1859.4373 0 0 1 -71.9532,56.1474 1859.4373,1859.4373 0 0 1 -74.6191,52.544 1859.4373,1859.4373 0 0 1 -77.1094,48.8379 1859.4373,1859.4373 0 0 1 -79.4092,44.9853 1859.4373,1859.4373 0 0 1 -81.5185,41.0303 1859.4373,1859.4373 0 0 1 -83.4375,36.9873 1859.4373,1859.4373 0 0 1 -85.1514,32.8418 1859.4373,1859.4373 0 0 1 -86.6455,28.623 1859.4373,1859.4373 0 0 1 -87.9639,24.3457 1859.4373,1859.4373 0 0 1 -89.0478,19.9951 1859.4373,1859.4373 0 0 1 -89.9268,15.6006 1859.4373,1859.4373 0 0 1 -90.5713,11.1768 1859.4373,1859.4373 0 0 1 -91.0254,6.709 1859.4373,1859.4373 0 0 1 -91.2451,2.2412 z m 32.461,-159.5654 a 1715.3964,1715.3964 0 0 0 84.1699,-2.0655 1715.3964,1715.3964 0 0 0 83.9795,-6.1963 1715.3964,1715.3964 0 0 0 83.5547,-10.2978 1715.3964,1715.3964 0 0 0 82.9541,-14.3994 1715.3964,1715.3964 0 0 0 82.1484,-18.4424 1715.3964,1715.3964 0 0 0 81.1523,-22.4561 1715.3964,1715.3964 0 0 0 79.9512,-26.4111 1715.3964,1715.3964 0 0 0 78.5449,-30.3076 1715.3964,1715.3964 0 0 0 76.9776,-34.1162 1715.3964,1715.3964 0 0 0 75.2051,-37.8516 1715.3964,1715.3964 0 0 0 73.2568,-41.499 1715.3964,1715.3964 0 0 0 71.1328,-45.044 1715.3964,1715.3964 0 0 0 68.833,-48.4863 1715.3964,1715.3964 0 0 0 66.3867,-51.7969 1715.3964,1715.3964 0 0 0 63.75,-55.0048 1715.3964,1715.3964 0 0 0 60.9815,-58.0518 1715.3964,1715.3964 0 0 0 58.0517,-60.9814 1715.3964,1715.3964 0 0 0 54.9903,-63.75 1715.3964,1715.3964 0 0 0 51.8115,-66.3721 1715.3964,1715.3964 0 0 0 48.4717,-68.833 1715.3964,1715.3964 0 0 0 45.0439,-71.1328 1715.3964,1715.3964 0 0 0 41.499,-73.2715 1715.3964,1715.3964 0 0 0 37.8516,-75.2051 1715.3964,1715.3964 0 0 0 34.1309,-76.9629 1715.3964,1715.3964 0 0 0 30.2929,-78.5596 1715.3964,1715.3964 0 0 0 0,-0.029 1715.3964,1715.3964 0 0 0 26.4112,-79.9218 1715.3964,1715.3964 0 0 0 0,-0.029 1715.3964,1715.3964 0 0 0 22.456,-81.1084 1715.3964,1715.3964 0 0 0 0,-0.029 1715.3964,1715.3964 0 0 0 18.4571,-82.1192 1715.3964,1715.3964 0 0 0 0,-0.029 1715.3964,1715.3964 0 0 0 14.3847,-82.9248 1715.3964,1715.3964 0 0 0 0,-0.029 1715.3964,1715.3964 0 0 0 10.3125,-83.54 1715.3964,1715.3964 0 0 0 0,-0.029 1715.3964,1715.3964 0 0 0 6.1963,-83.9355 1715.3964,1715.3964 0 0 0 0,-0.029 1715.3964,1715.3964 0 0 0 0.1025,-2.0801 1715.3964,1715.3964 0 0 0 0,-0.029 1715.3964,1715.3964 0 0 0 0.1026,-2.0654 1715.3964,1715.3964 0 0 0 0,-0.029 1715.3964,1715.3964 0 0 0 0.088,-2.0801 1715.3964,1715.3964 0 0 0 0,-0.029 1715.3964,1715.3964 0 0 0 0.1025,-2.0655 1715.3964,1715.3964 0 0 0 0,-0.029 1715.3964,1715.3964 0 0 0 0.088,-2.0801 1715.3964,1715.3964 0 0 0 0,-0.029 1715.3964,1715.3964 0 0 0 0.088,-2.0655 1715.3964,1715.3964 0 0 0 0,-0.029 1715.3964,1715.3964 0 0 0 0.088,-2.0801 1715.3964,1715.3964 0 0 0 0,-0.029 1715.3964,1715.3964 0 0 0 0.088,-2.0801 1715.3964,1715.3964 0 0 0 0,-0.029 1715.3964,1715.3964 0 0 0 0.073,-2.0654 1715.3964,1715.3964 0 0 0 0,-0.029 1715.3964,1715.3964 0 0 0 0.088,-2.0801 1715.3964,1715.3964 0 0 0 0,-0.029 1715.3964,1715.3964 0 0 0 0.073,-2.0654 1715.3964,1715.3964 0 0 0 0,-0.029 1715.3964,1715.3964 0 0 0 0.073,-2.0801 1715.3964,1715.3964 0 0 0 0,-0.029 1715.3964,1715.3964 0 0 0 0.073,-2.0801 1715.3964,1715.3964 0 0 0 0,-0.029 1715.3964,1715.3964 0 0 0 0.059,-2.0654 1715.3964,1715.3964 0 0 0 0,-0.029 1715.3964,1715.3964 0 0 0 0.073,-2.0801 1715.3964,1715.3964 0 0 0 0,-0.029 1715.3964,1715.3964 0 0 0 0.059,-2.0801 1715.3964,1715.3964 0 0 0 0,-0.029 1715.3964,1715.3964 0 0 0 0.059,-2.0654 1715.3964,1715.3964 0 0 0 0,-0.029 1715.3964,1715.3964 0 0 0 0.059,-2.0801 1715.3964,1715.3964 0 0 0 0,-0.029 1715.3964,1715.3964 0 0 0 0.059,-2.0654 1715.3964,1715.3964 0 0 0 0,-0.029 1715.3964,1715.3964 0 0 0 0.059,-2.0801 1715.3964,1715.3964 0 0 0 0,-0.029 1715.3964,1715.3964 0 0 0 0.044,-2.08 1715.3964,1715.3964 0 0 0 0,-0.029 1715.3964,1715.3964 0 0 0 0.044,-2.0655 1715.3964,1715.3964 0 0 0 0,-0.029 1715.3964,1715.3964 0 0 0 0.059,-2.08 1715.3964,1715.3964 0 0 0 0,-0.029 1715.3964,1715.3964 0 0 0 0.029,-2.0801 1715.3964,1715.3964 0 0 0 0,-0.029 1715.3964,1715.3964 0 0 0 0.044,-2.0801 1715.3964,1715.3964 0 0 0 0,-0.029 1715.3964,1715.3964 0 0 0 0.044,-2.0654 1715.3964,1715.3964 0 0 0 0,-0.029 1715.3964,1715.3964 0 0 0 0.029,-2.0801 1715.3964,1715.3964 0 0 0 0,-0.029 1715.3964,1715.3964 0 0 0 0.029,-2.0801 1715.3964,1715.3964 0 0 0 0,-0.029 1715.3964,1715.3964 0 0 0 0.029,-2.0654 1715.3964,1715.3964 0 0 0 0,-0.029 1715.3964,1715.3964 0 0 0 0.029,-2.0801 1715.3964,1715.3964 0 0 0 0,-0.029 1715.3964,1715.3964 0 0 0 0.029,-2.08 1715.3964,1715.3964 0 0 0 0,-0.029 1715.3964,1715.3964 0 0 0 0.015,-2.0655 1715.3964,1715.3964 0 0 0 0,-0.029 1715.3964,1715.3964 0 0 0 0.029,-2.08 1715.3964,1715.3964 0 0 0 0,-0.029 1715.3964,1715.3964 0 0 0 0.015,-2.0801 1715.3964,1715.3964 0 0 0 0,-0.029 1715.3964,1715.3964 0 0 0 0.015,-2.0654 1715.3964,1715.3964 0 0 0 0,-0.029 1715.3964,1715.3964 0 0 0 0.015,-2.0801 1715.3964,1715.3964 0 0 0 0,-0.029 1715.3964,1715.3964 0 0 0 0,-0.029 1715.3964,1715.3964 0 0 0 0,-0.029 1715.3964,1715.3964 0 0 1 0,-0.015 1715.3964,1715.3964 0 0 0 0,-0.029 1715.3964,1715.3964 0 0 0 0,-0.029 1715.3964,1715.3964 0 0 0 0,-0.029 1715.3964,1715.3964 0 0 1 0,-0.015 1715.3964,1715.3964 0 0 0 0,-0.029 1715.3964,1715.3964 0 0 0 0,-0.029 1715.3964,1715.3964 0 0 0 0,-0.029 1715.3964,1715.3964 0 0 1 0,-0.015 1715.3964,1715.3964 0 0 0 0,-0.029 1715.3964,1715.3964 0 0 0 0,-0.029 1715.3964,1715.3964 0 0 0 0,-0.029 1715.3964,1715.3964 0 0 1 0,-0.015 1715.3964,1715.3964 0 0 0 0,-0.029 1715.3964,1715.3964 0 0 0 0,-0.029 1715.3964,1715.3964 0 0 0 0,-0.029 1715.3964,1715.3964 0 0 1 0,-0.015 1715.3964,1715.3964 0 0 0 0,-0.029 1715.3964,1715.3964 0 0 0 0,-0.029 1715.3964,1715.3964 0 0 0 0,-0.029 1715.3964,1715.3964 0 0 1 0,-0.015 1715.3964,1715.3964 0 0 0 0,-0.029 1715.3964,1715.3964 0 0 0 0,-0.029 1715.3964,1715.3964 0 0 0 0,-0.029 1715.3964,1715.3964 0 0 1 0,-0.015 1715.3964,1715.3964 0 0 0 0,-0.029 1715.3964,1715.3964 0 0 0 0,-0.029 1715.3964,1715.3964 0 0 0 0,-0.029 1715.3964,1715.3964 0 0 1 0,-0.015 1715.3964,1715.3964 0 0 0 0,-0.029 1715.3964,1715.3964 0 0 0 0,-0.029 1715.3964,1715.3964 0 0 0 0,-0.029 1715.3964,1715.3964 0 0 1 0,-0.015 1715.3964,1715.3964 0 0 0 0,-0.029 1715.3964,1715.3964 0 0 0 0,-0.029 1715.3964,1715.3964 0 0 0 0,-0.029 1715.3964,1715.3964 0 0 1 0,-0.015 1715.3964,1715.3964 0 0 0 0,-0.029 1715.3964,1715.3964 0 0 0 0,-0.029 1715.3964,1715.3964 0 0 0 0,-0.029 1715.3964,1715.3964 0 0 1 0,-0.015 1715.3964,1715.3964 0 0 0 0,-0.029 1715.3964,1715.3964 0 0 0 0,-0.029 1715.3964,1715.3964 0 0 0 0,-0.029 1715.3964,1715.3964 0 0 1 0,-0.015 1715.3964,1715.3964 0 0 0 0,-0.029 1715.3964,1715.3964 0 0 0 0,-0.029 1715.3964,1715.3964 0 0 0 0,-0.029 1715.3964,1715.3964 0 0 1 0,-0.015 1715.3964,1715.3964 0 0 0 0,-0.029 1715.3964,1715.3964 0 0 0 0,-0.029 1715.3964,1715.3964 0 0 0 0,-0.029 1715.3964,1715.3964 0 0 1 0,-0.015 1715.3964,1715.3964 0 0 0 0,-0.029 1715.3964,1715.3964 0 0 0 0,-0.044 1715.3964,1715.3964 0 0 1 0,-0.015 1715.3964,1715.3964 0 0 0 0,-0.029 1715.3964,1715.3964 0 0 1 0,-0.015 1715.3964,1715.3964 0 0 0 0,-0.044 1715.3964,1715.3964 0 0 1 0,-0.015 1715.3964,1715.3964 0 0 0 0,-0.029 1715.3964,1715.3964 0 0 0 0,-0.029 1715.3964,1715.3964 0 0 0 0,-0.029 1715.3964,1715.3964 0 0 0 0,-0.029 1715.3964,1715.3964 0 0 1 0,-0.015 1715.3964,1715.3964 0 0 0 0,-0.029 1715.3964,1715.3964 0 0 0 0,-0.029 1715.3964,1715.3964 0 0 0 0,-0.029 1715.3964,1715.3964 0 0 1 0,-0.015 1715.3964,1715.3964 0 0 0 0,-0.029 1715.3964,1715.3964 0 0 0 0,-0.029 1715.3964,1715.3964 0 0 0 0,-0.029 1715.3964,1715.3964 0 0 1 0,-0.015 1715.3964,1715.3964 0 0 0 0,-0.029 1715.3964,1715.3964 0 0 0 0,-0.029 1715.3964,1715.3964 0 0 0 0,-0.029 1715.3964,1715.3964 0 0 1 0,-0.015 1715.3964,1715.3964 0 0 0 0,-0.029 1715.3964,1715.3964 0 0 0 0,-0.029 1715.3964,1715.3964 0 0 0 0,-0.029 1715.3964,1715.3964 0 0 0 0.015,-2.0801 1715.3964,1715.3964 0 0 0 0,-0.029 1715.3964,1715.3964 0 0 1 0,-0.015 1715.3964,1715.3964 0 0 0 0,-0.029 1715.3964,1715.3964 0 0 0 0,-0.029 1715.3964,1715.3964 0 0 0 0,-0.029 1715.3964,1715.3964 0 0 1 0,-0.015 1715.3964,1715.3964 0 0 0 0,-0.029 1715.3964,1715.3964 0 0 0 0,-0.029 1715.3964,1715.3964 0 0 0 0,-0.029 1715.3964,1715.3964 0 0 1 0,-0.015 1715.3964,1715.3964 0 0 0 0,-0.029 1715.3964,1715.3964 0 0 0 0,-0.029 1715.3964,1715.3964 0 0 0 0,-0.029 1715.3964,1715.3964 0 0 1 0,-0.015 1715.3964,1715.3964 0 0 0 0,-0.029 1715.3964,1715.3964 0 0 0 0,-0.029 1715.3964,1715.3964 0 0 0 0,-0.029 1715.3964,1715.3964 0 0 1 0,-0.015 1715.3964,1715.3964 0 0 0 0,-0.029 1715.3964,1715.3964 0 0 0 0,-0.029 1715.3964,1715.3964 0 0 0 0,-0.029 1715.3964,1715.3964 0 0 1 0,-0.015 1715.3964,1715.3964 0 0 0 0,-0.029 1715.3964,1715.3964 0 0 0 0,-0.029 1715.3964,1715.3964 0 0 0 0,-0.029 1715.3964,1715.3964 0 0 1 0,-0.015 1715.3964,1715.3964 0 0 0 0,-0.029 1715.3964,1715.3964 0 0 0 0,-0.029 1715.3964,1715.3964 0 0 0 0,-0.029 1715.3964,1715.3964 0 0 1 0,-0.015 1715.3964,1715.3964 0 0 0 0,-0.029 1715.3964,1715.3964 0 0 0 0,-0.029 1715.3964,1715.3964 0 0 0 0,-0.029 1715.3964,1715.3964 0 0 1 0,-0.015 1715.3964,1715.3964 0 0 0 0,-0.029 1715.3964,1715.3964 0 0 0 0,-0.029 1715.3964,1715.3964 0 0 0 0,-0.029 1715.3964,1715.3964 0 0 1 0,-0.015 1715.3964,1715.3964 0 0 0 0,-0.029 1715.3964,1715.3964 0 0 0 0,-0.029 1715.3964,1715.3964 0 0 0 0,-0.029 1715.3964,1715.3964 0 0 1 0,-0.015 1715.3964,1715.3964 0 0 0 0,-0.029 1715.3964,1715.3964 0 0 0 0,-0.029 1715.3964,1715.3964 0 0 0 0,-0.029 1715.3964,1715.3964 0 0 1 0,-0.015 1715.3964,1715.3964 0 0 0 0,-0.029 1715.3964,1715.3964 0 0 0 0,-0.029 1715.3964,1715.3964 0 0 0 0,-0.029 1715.3964,1715.3964 0 0 1 0,-0.015 1715.3964,1715.3964 0 0 0 0,-0.029 1715.3964,1715.3964 0 0 0 0,-0.029 1715.3964,1715.3964 0 0 0 0,-0.029 1715.3964,1715.3964 0 0 1 0,-0.015 1715.3964,1715.3964 0 0 0 0,-0.029 1715.3964,1715.3964 0 0 0 0,-0.029 1715.3964,1715.3964 0 0 0 0,-0.029 1715.3964,1715.3964 0 0 1 0,-0.015 1715.3964,1715.3964 0 0 0 0,-0.029 1715.3964,1715.3964 0 0 0 0,-0.029 1715.3964,1715.3964 0 0 0 0,-0.029 1715.3964,1715.3964 0 0 1 0,-0.015 1715.3964,1715.3964 0 0 0 0,-0.029 1715.3964,1715.3964 0 0 0 0,-0.029 1715.3964,1715.3964 0 0 0 0,-0.029 1715.3964,1715.3964 0 0 1 0,-0.015 1715.3964,1715.3964 0 0 0 0,-0.029 1715.3964,1715.3964 0 0 0 0,-0.029 1715.3964,1715.3964 0 0 0 0,-0.029 1715.3964,1715.3964 0 0 1 0,-0.015 1715.3964,1715.3964 0 0 0 0,-0.029 1715.3964,1715.3964 0 0 0 0,-0.029 1715.3964,1715.3964 0 0 0 0,-0.029 1715.3964,1715.3964 0 0 1 0,-0.015 1715.3964,1715.3964 0 0 0 0,-0.029 1715.3964,1715.3964 0 0 0 0,-0.029 1715.3964,1715.3964 0 0 0 0,-0.029 1715.3964,1715.3964 0 0 1 0,-0.015 1715.3964,1715.3964 0 0 0 0,-0.029 1715.3964,1715.3964 0 0 0 0,-0.029 1715.3964,1715.3964 0 0 0 0,-0.029 1715.3964,1715.3964 0 0 1 0,-0.015 1715.3964,1715.3964 0 0 0 0,-0.029 1715.3964,1715.3964 0 0 0 0,-0.029 1715.3964,1715.3964 0 0 0 0,-0.029 1715.3964,1715.3964 0 0 1 0,-0.015 1715.3964,1715.3964 0 0 0 0,-0.029 1715.3964,1715.3964 0 0 0 0,-0.029 1715.3964,1715.3964 0 0 0 0,-0.029 1715.3964,1715.3964 0 0 1 0,-0.015 1715.3964,1715.3964 0 0 0 0,-0.029 1715.3964,1715.3964 0 0 0 0,-0.029 1715.3964,1715.3964 0 0 0 0,-0.029 1715.3964,1715.3964 0 0 1 0,-0.015 1715.3964,1715.3964 0 0 0 0,-0.029 1715.3964,1715.3964 0 0 0 0,-0.029 1715.3964,1715.3964 0 0 0 0,-0.029 1715.3964,1715.3964 0 0 1 0,-0.015 1715.3964,1715.3964 0 0 0 0,-0.029 1715.3964,1715.3964 0 0 0 0,-0.029 1715.3964,1715.3964 0 0 0 0,-0.029 1715.3964,1715.3964 0 0 0 0,-0.029 1715.3964,1715.3964 0 0 1 0,-0.015 1715.3964,1715.3964 0 0 0 0,-0.044 1715.3964,1715.3964 0 0 1 0,-0.015 1715.3964,1715.3964 0 0 0 0,-0.029 1715.3964,1715.3964 0 0 1 0,-0.015 1715.3964,1715.3964 0 0 0 0,-0.044 1715.3964,1715.3964 0 0 0 0,-0.029 1715.3964,1715.3964 0 0 1 0,-0.015 1715.3964,1715.3964 0 0 0 0,-0.029 1715.3964,1715.3964 0 0 0 0,-0.029 1715.3964,1715.3964 0 0 0 0,-0.029 1715.3964,1715.3964 0 0 1 0,-0.015 1715.3964,1715.3964 0 0 0 0,-0.029 1715.3964,1715.3964 0 0 0 0,-0.029 1715.3964,1715.3964 0 0 0 0,-0.029 1715.3964,1715.3964 0 0 1 0,-0.015 1715.3964,1715.3964 0 0 0 0,-0.029 1715.3964,1715.3964 0 0 0 0,-0.029 1715.3964,1715.3964 0 0 0 0,-0.029 1715.3964,1715.3964 0 0 1 0,-0.015 1715.3964,1715.3964 0 0 0 0,-0.029 1715.3964,1715.3964 0 0 0 0,-0.029 1715.3964,1715.3964 0 0 0 0,-0.029 1715.3964,1715.3964 0 0 1 0,-0.015 1715.3964,1715.3964 0 0 0 0,-0.029 1715.3964,1715.3964 0 0 0 0,-0.029 1715.3964,1715.3964 0 0 0 0,-0.029 1715.3964,1715.3964 0 0 1 0,-0.015 1715.3964,1715.3964 0 0 0 0,-0.029 1715.3964,1715.3964 0 0 0 0,-0.029 1715.3964,1715.3964 0 0 0 0,-0.029 1715.3964,1715.3964 0 0 1 0,-0.015 1715.3964,1715.3964 0 0 0 0,-0.029 1715.3964,1715.3964 0 0 0 0,-0.029 1715.3964,1715.3964 0 0 0 0,-0.029 1715.3964,1715.3964 0 0 1 0,-0.015 1715.3964,1715.3964 0 0 0 0,-0.029 1715.3964,1715.3964 0 0 0 0,-0.029 1715.3964,1715.3964 0 0 0 0,-0.029 1715.3964,1715.3964 0 0 1 0,-0.015 1715.3964,1715.3964 0 0 0 0,-0.029 1715.3964,1715.3964 0 0 0 0,-0.029 1715.3964,1715.3964 0 0 0 0,-0.029 1715.3964,1715.3964 0 0 1 0,-0.015 1715.3964,1715.3964 0 0 0 0,-0.029 1715.3964,1715.3964 0 0 0 0,-0.029 1715.3964,1715.3964 0 0 0 0,-0.029 1715.3964,1715.3964 0 0 1 0,-0.015 1715.3964,1715.3964 0 0 0 0,-0.029 1715.3964,1715.3964 0 0 0 0,-0.029 1715.3964,1715.3964 0 0 0 0,-0.029 1715.3964,1715.3964 0 0 1 0,-0.015 1715.3964,1715.3964 0 0 0 0,-0.029 1715.3964,1715.3964 0 0 0 0,-0.029 1715.3964,1715.3964 0 0 0 0,-0.029 1715.3964,1715.3964 0 0 1 0,-0.015 1715.3964,1715.3964 0 0 0 0,-0.029 1715.3964,1715.3964 0 0 0 0,-0.029 1715.3964,1715.3964 0 0 0 0,-0.029 1715.3964,1715.3964 0 0 1 0,-0.015 1715.3964,1715.3964 0 0 0 0,-0.029 1715.3964,1715.3964 0 0 0 0,-0.029 1715.3964,1715.3964 0 0 0 0,-0.029 1715.3964,1715.3964 0 0 0 -17.4609,-244.1015 1715.3964,1715.3964 0 0 0 0,-0.029 1715.3964,1715.3964 0 0 0 -52.0312,-239.1211 1715.3964,1715.3964 0 0 0 0,-0.029 1715.3964,1715.3964 0 0 0 -85.5323,-229.3213 1715.3964,1715.3964 0 0 0 -117.29,-214.8193 A 1715.3964,1715.3964 0 0 0 3910.9717,1172.583 1715.3964,1715.3964 0 0 0 3737.9004,999.51172 1715.3964,1715.3964 0 0 0 3541.9775,852.83691 1715.3964,1715.3964 0 0 0 3327.1582,735.54687 1715.3964,1715.3964 0 0 0 3097.8369,650.01465 1715.3964,1715.3964 0 0 0 2858.6865,597.9834 a 1715.3964,1715.3964 0 0 0 -244.1308,-17.46094 1715.3964,1715.3964 0 0 0 -244.1162,17.46094 1715.3964,1715.3964 0 0 0 -239.1651,52.03125 1715.3964,1715.3964 0 0 0 -229.3213,85.53222 1715.3964,1715.3964 0 0 0 -214.8047,117.29004 1715.3964,1715.3964 0 0 0 -195.9375,146.67481 1715.3964,1715.3964 0 0 0 -173.0566,173.07128 1715.3964,1715.3964 0 0 0 -146.6748,195.9229 1715.3964,1715.3964 0 0 0 -117.3047,214.8193 1715.3964,1715.3964 0 0 0 -85.51757,229.3213 1715.3964,1715.3964 0 0 0 -52.03125,239.1504 1715.3964,1715.3964 0 0 0 -17.46094,244.1308 1715.3964,1715.3964 0 0 0 17.46094,244.1309 1715.3964,1715.3964 0 0 0 52.03125,239.1504 1715.3964,1715.3964 0 0 0 85.51757,229.3213 1715.3964,1715.3964 0 0 0 117.3047,214.8047 1715.3964,1715.3964 0 0 0 146.6748,195.9375 1715.3964,1715.3964 0 0 0 173.0566,173.0566 1715.3964,1715.3964 0 0 0 195.9375,146.6748 1715.3964,1715.3964 0 0 0 214.8047,117.3047 1715.3964,1715.3964 0 0 0 229.3213,85.5322 1715.3964,1715.3964 0 0 0 239.1651,52.0166 1715.3964,1715.3964 0 0 0 244.1162,17.461 z"
       style="fill-rule:evenodd;stroke-width:7.72951;stroke-dasharray:0, 85.0248"
       id="path58" />
    <path
       d="m 4229.6777,2873.8232 a 1715.3964,1715.3964 0 0 1 -30.2929,78.5596 1715.3964,1715.3964 0 0 1 -34.1309,76.9629 1715.3964,1715.3964 0 0 1 -37.8516,75.2051 1715.3964,1715.3964 0 0 1 -41.499,73.2715 1715.3964,1715.3964 0 0 1 -45.0439,71.1328 1715.3964,1715.3964 0 0 1 -48.4717,68.833 1715.3964,1715.3964 0 0 1 -51.8115,66.3721 1715.3964,1715.3964 0 0 1 -54.9903,63.75 1715.3964,1715.3964 0 0 1 -58.0517,60.9814 1715.3964,1715.3964 0 0 1 -60.9815,58.0518 1715.3964,1715.3964 0 0 1 -63.75,55.0048 1715.3964,1715.3964 0 0 1 -66.3867,51.7969 1715.3964,1715.3964 0 0 1 -68.833,48.4863 1715.3964,1715.3964 0 0 1 -71.1328,45.044 1715.3964,1715.3964 0 0 1 -73.2568,41.499 1715.3964,1715.3964 0 0 1 -75.2051,37.8516 1715.3964,1715.3964 0 0 1 -76.9776,34.1162 1715.3964,1715.3964 0 0 1 -78.5449,30.3076 1715.3964,1715.3964 0 0 1 -79.9512,26.4111 1715.3964,1715.3964 0 0 1 -81.1523,22.4561 1715.3964,1715.3964 0 0 1 -82.1484,18.4424 1715.3964,1715.3964 0 0 1 -82.9541,14.3994 1715.3964,1715.3964 0 0 1 -83.5547,10.2978 1715.3964,1715.3964 0 0 1 -83.9795,6.1963 1715.3964,1715.3964 0 0 1 -84.1699,2.0655 1715.3964,1715.3964 0 0 1 -244.1162,-17.461 1715.3964,1715.3964 0 0 1 -239.1651,-52.0166 1715.3964,1715.3964 0 0 1 -229.3213,-85.5322 1715.3964,1715.3964 0 0 1 -214.8047,-117.3047 1715.3964,1715.3964 0 0 1 -195.9375,-146.6748 1715.3964,1715.3964 0 0 1 -173.0566,-173.0566 1715.3964,1715.3964 0 0 1 -146.6748,-195.9375 1715.3964,1715.3964 0 0 1 -117.3047,-214.8047 1715.3964,1715.3964 0 0 1 -85.51757,-229.3213 1715.3964,1715.3964 0 0 1 -52.03125,-239.1504 1715.3964,1715.3964 0 0 1 -17.46094,-244.1309 1715.3964,1715.3964 0 0 1 17.46094,-244.1308 1715.3964,1715.3964 0 0 1 52.03125,-239.1504 1715.3964,1715.3964 0 0 1 85.51757,-229.3213 1715.3964,1715.3964 0 0 1 117.3047,-214.8193 1715.3964,1715.3964 0 0 1 146.6748,-195.9229 1715.3964,1715.3964 0 0 1 173.0566,-173.07128 1715.3964,1715.3964 0 0 1 195.9375,-146.67481 1715.3964,1715.3964 0 0 1 214.8047,-117.29004 1715.3964,1715.3964 0 0 1 229.3213,-85.53222 1715.3964,1715.3964 0 0 1 239.1651,-52.03125 1715.3964,1715.3964 0 0 1 244.1162,-17.46094 1715.3964,1715.3964 0 0 1 244.1308,17.46094 1715.3964,1715.3964 0 0 1 239.1504,52.03125 1715.3964,1715.3964 0 0 1 229.3213,85.53222 1715.3964,1715.3964 0 0 1 214.8193,117.29004 1715.3964,1715.3964 0 0 1 195.9229,146.67481 1715.3964,1715.3964 0 0 1 173.0713,173.07128 1715.3964,1715.3964 0 0 1 146.6748,195.9229 1715.3964,1715.3964 0 0 1 117.29,214.8193 1715.3964,1715.3964 0 0 1 85.5323,229.3213 1715.3964,1715.3964 0 0 1 52.0312,239.1211 1715.3964,1715.3964 0 0 1 0,0.029 1715.3964,1715.3964 0 0 1 17.4609,244.1015 1715.3964,1715.3964 0 0 1 0,0.029 1715.3964,1715.3964 0 0 1 0,0.029 1715.3964,1715.3964 0 0 1 0,0.029 1715.3964,1715.3964 0 0 1 0,0.015 1715.3964,1715.3964 0 0 1 0,0.029 1715.3964,1715.3964 0 0 1 0,0.029 1715.3964,1715.3964 0 0 1 0,0.029 1715.3964,1715.3964 0 0 1 0,0.015 1715.3964,1715.3964 0 0 1 0,0.029 1715.3964,1715.3964 0 0 1 0,0.029 1715.3964,1715.3964 0 0 1 0,0.029 1715.3964,1715.3964 0 0 1 0,0.015 1715.3964,1715.3964 0 0 1 0,0.029 1715.3964,1715.3964 0 0 1 0,0.029 1715.3964,1715.3964 0 0 1 0,0.029 1715.3964,1715.3964 0 0 1 0,0.015 1715.3964,1715.3964 0 0 1 0,0.029 1715.3964,1715.3964 0 0 1 0,0.029 1715.3964,1715.3964 0 0 1 0,0.029 1715.3964,1715.3964 0 0 1 0,0.015 1715.3964,1715.3964 0 0 1 0,0.029 1715.3964,1715.3964 0 0 1 0,0.029 1715.3964,1715.3964 0 0 1 0,0.029 1715.3964,1715.3964 0 0 1 0,0.015 1715.3964,1715.3964 0 0 1 0,0.029 1715.3964,1715.3964 0 0 1 0,0.029 1715.3964,1715.3964 0 0 1 0,0.029 1715.3964,1715.3964 0 0 1 0,0.015 1715.3964,1715.3964 0 0 1 0,0.029 1715.3964,1715.3964 0 0 1 0,0.029 1715.3964,1715.3964 0 0 1 0,0.029 1715.3964,1715.3964 0 0 1 0,0.015 1715.3964,1715.3964 0 0 1 0,0.029 1715.3964,1715.3964 0 0 1 0,0.029 1715.3964,1715.3964 0 0 1 0,0.029 1715.3964,1715.3964 0 0 1 0,0.015 1715.3964,1715.3964 0 0 1 0,0.029 1715.3964,1715.3964 0 0 1 0,0.029 1715.3964,1715.3964 0 0 1 0,0.029 1715.3964,1715.3964 0 0 1 0,0.015 1715.3964,1715.3964 0 0 1 0,0.029 1715.3964,1715.3964 0 0 1 0,0.029 1715.3964,1715.3964 0 0 1 0,0.029 1715.3964,1715.3964 0 0 1 0,0.015 1715.3964,1715.3964 0 0 1 0,0.029 1715.3964,1715.3964 0 0 1 0,0.029 1715.3964,1715.3964 0 0 1 0,0.029 1715.3964,1715.3964 0 0 1 0,0.015 1715.3964,1715.3964 0 0 1 0,0.029 1715.3964,1715.3964 0 0 1 0,0.029 1715.3964,1715.3964 0 0 1 0,0.029 1715.3964,1715.3964 0 0 1 0,0.015 1715.3964,1715.3964 0 0 1 0,0.029 1715.3964,1715.3964 0 0 1 0,0.029 1715.3964,1715.3964 0 0 1 0,0.029 1715.3964,1715.3964 0 0 1 0,0.015 1715.3964,1715.3964 0 0 1 0,0.029 1715.3964,1715.3964 0 0 1 0,0.044 1715.3964,1715.3964 0 0 1 0,0.015 1715.3964,1715.3964 0 0 1 0,0.029 1715.3964,1715.3964 0 0 1 0,0.015 1715.3964,1715.3964 0 0 1 0,0.044 1715.3964,1715.3964 0 0 1 0,0.015 1715.3964,1715.3964 0 0 1 0,0.029 1715.3964,1715.3964 0 0 1 0,0.029 1715.3964,1715.3964 0 0 1 0,0.029 1715.3964,1715.3964 0 0 1 0,0.029 1715.3964,1715.3964 0 0 1 0,0.015 1715.3964,1715.3964 0 0 1 0,0.029 1715.3964,1715.3964 0 0 1 0,0.029 1715.3964,1715.3964 0 0 1 0,0.029 1715.3964,1715.3964 0 0 1 0,0.015 1715.3964,1715.3964 0 0 1 0,0.029 1715.3964,1715.3964 0 0 1 0,0.029 1715.3964,1715.3964 0 0 1 0,0.029 1715.3964,1715.3964 0 0 1 0,0.015 1715.3964,1715.3964 0 0 1 0,0.029 1715.3964,1715.3964 0 0 1 0,0.029 1715.3964,1715.3964 0 0 1 0,0.029 1715.3964,1715.3964 0 0 1 0,0.015 1715.3964,1715.3964 0 0 1 0,0.029 1715.3964,1715.3964 0 0 1 0,0.029 1715.3964,1715.3964 0 0 1 0,0.029 1715.3964,1715.3964 0 0 1 0,0.015 1715.3964,1715.3964 0 0 1 0,0.029 1715.3964,1715.3964 0 0 1 0,0.029 1715.3964,1715.3964 0 0 1 0,0.029 1715.3964,1715.3964 0 0 1 0,0.015 1715.3964,1715.3964 0 0 1 0,0.029 1715.3964,1715.3964 0 0 1 0,0.029 1715.3964,1715.3964 0 0 1 0,0.029 1715.3964,1715.3964 0 0 1 0,0.015 1715.3964,1715.3964 0 0 1 0,0.029 1715.3964,1715.3964 0 0 1 0,0.029 1715.3964,1715.3964 0 0 1 0,0.029 1715.3964,1715.3964 0 0 1 0,0.015 1715.3964,1715.3964 0 0 1 0,0.029 1715.3964,1715.3964 0 0 1 0,0.029 1715.3964,1715.3964 0 0 1 0,0.029 1715.3964,1715.3964 0 0 1 0,0.015 1715.3964,1715.3964 0 0 1 0,0.029 1715.3964,1715.3964 0 0 1 0,0.029 1715.3964,1715.3964 0 0 1 0,0.029 1715.3964,1715.3964 0 0 1 0,0.015 1715.3964,1715.3964 0 0 1 0,0.029 1715.3964,1715.3964 0 0 1 0,0.029 1715.3964,1715.3964 0 0 1 0,0.029 1715.3964,1715.3964 0 0 1 0,0.015 1715.3964,1715.3964 0 0 1 0,0.029 1715.3964,1715.3964 0 0 1 0,0.029 1715.3964,1715.3964 0 0 1 0,0.029 1715.3964,1715.3964 0 0 1 0,0.015 1715.3964,1715.3964 0 0 1 0,0.029 1715.3964,1715.3964 0 0 1 0,0.029 1715.3964,1715.3964 0 0 1 0,0.029 1715.3964,1715.3964 0 0 1 0,0.015 1715.3964,1715.3964 0 0 1 0,0.029 1715.3964,1715.3964 0 0 1 0,0.029 1715.3964,1715.3964 0 0 1 0,0.029 1715.3964,1715.3964 0 0 1 0,0.015 1715.3964,1715.3964 0 0 1 0,0.029 1715.3964,1715.3964 0 0 1 0,0.029 1715.3964,1715.3964 0 0 1 0,0.029 1715.3964,1715.3964 0 0 1 0,0.015 1715.3964,1715.3964 0 0 1 0,0.029 1715.3964,1715.3964 0 0 1 0,0.029 1715.3964,1715.3964 0 0 1 0,0.029 1715.3964,1715.3964 0 0 1 0,0.015 1715.3964,1715.3964 0 0 1 0,0.029 1715.3964,1715.3964 0 0 1 0,0.029 1715.3964,1715.3964 0 0 1 0,0.029 1715.3964,1715.3964 0 0 1 0,0.015 1715.3964,1715.3964 0 0 1 0,0.029 1715.3964,1715.3964 0 0 1 0,0.029 1715.3964,1715.3964 0 0 1 0,0.029 1715.3964,1715.3964 0 0 1 0,0.015 1715.3964,1715.3964 0 0 1 0,0.029 1715.3964,1715.3964 0 0 1 0,0.029 1715.3964,1715.3964 0 0 1 0,0.029 1715.3964,1715.3964 0 0 1 0,0.015 1715.3964,1715.3964 0 0 1 0,0.029 1715.3964,1715.3964 0 0 1 0,0.029 1715.3964,1715.3964 0 0 1 0,0.029 1715.3964,1715.3964 0 0 1 0,0.015 1715.3964,1715.3964 0 0 1 0,0.029 1715.3964,1715.3964 0 0 1 0,0.029 1715.3964,1715.3964 0 0 1 0,0.029 1715.3964,1715.3964 0 0 1 0,0.015 1715.3964,1715.3964 0 0 1 0,0.029 1715.3964,1715.3964 0 0 1 0,0.029 1715.3964,1715.3964 0 0 1 0,0.029 1715.3964,1715.3964 0 0 1 0,0.015 1715.3964,1715.3964 0 0 1 0,0.029 1715.3964,1715.3964 0 0 1 0,0.029 1715.3964,1715.3964 0 0 1 0,0.029 1715.3964,1715.3964 0 0 1 0,0.015 1715.3964,1715.3964 0 0 1 0,0.029 1715.3964,1715.3964 0 0 1 0,0.029 1715.3964,1715.3964 0 0 1 0,0.029 1715.3964,1715.3964 0 0 1 0,0.015 1715.3964,1715.3964 0 0 1 0,0.029 1715.3964,1715.3964 0 0 1 0,0.029 1715.3964,1715.3964 0 0 1 0,0.029 1715.3964,1715.3964 0 0 1 0,0.015 1715.3964,1715.3964 0 0 1 0,0.029 1715.3964,1715.3964 0 0 1 -0.015,2.0801 1715.3964,1715.3964 0 0 1 0,0.029 1715.3964,1715.3964 0 0 1 0,0.029 1715.3964,1715.3964 0 0 1 0,0.029 1715.3964,1715.3964 0 0 1 0,0.015 1715.3964,1715.3964 0 0 1 0,0.029 1715.3964,1715.3964 0 0 1 0,0.029 1715.3964,1715.3964 0 0 1 0,0.029 1715.3964,1715.3964 0 0 1 0,0.015 1715.3964,1715.3964 0 0 1 0,0.029 1715.3964,1715.3964 0 0 1 0,0.029 1715.3964,1715.3964 0 0 1 0,0.029 1715.3964,1715.3964 0 0 1 0,0.015 1715.3964,1715.3964 0 0 1 0,0.029 1715.3964,1715.3964 0 0 1 0,0.029 1715.3964,1715.3964 0 0 1 0,0.029 1715.3964,1715.3964 0 0 1 0,0.015 1715.3964,1715.3964 0 0 1 0,0.029 1715.3964,1715.3964 0 0 1 0,0.029 1715.3964,1715.3964 0 0 1 0,0.029 1715.3964,1715.3964 0 0 1 0,0.029 1715.3964,1715.3964 0 0 1 0,0.015 1715.3964,1715.3964 0 0 1 0,0.044 1715.3964,1715.3964 0 0 1 0,0.015 1715.3964,1715.3964 0 0 1 0,0.029 1715.3964,1715.3964 0 0 1 0,0.015 1715.3964,1715.3964 0 0 1 0,0.044 1715.3964,1715.3964 0 0 1 0,0.029 1715.3964,1715.3964 0 0 1 0,0.015 1715.3964,1715.3964 0 0 1 0,0.029 1715.3964,1715.3964 0 0 1 0,0.029 1715.3964,1715.3964 0 0 1 0,0.029 1715.3964,1715.3964 0 0 1 0,0.015 1715.3964,1715.3964 0 0 1 0,0.029 1715.3964,1715.3964 0 0 1 0,0.029 1715.3964,1715.3964 0 0 1 0,0.029 1715.3964,1715.3964 0 0 1 0,0.015 1715.3964,1715.3964 0 0 1 0,0.029 1715.3964,1715.3964 0 0 1 0,0.029 1715.3964,1715.3964 0 0 1 0,0.029 1715.3964,1715.3964 0 0 1 0,0.015 1715.3964,1715.3964 0 0 1 0,0.029 1715.3964,1715.3964 0 0 1 0,0.029 1715.3964,1715.3964 0 0 1 0,0.029 1715.3964,1715.3964 0 0 1 0,0.015 1715.3964,1715.3964 0 0 1 0,0.029 1715.3964,1715.3964 0 0 1 0,0.029 1715.3964,1715.3964 0 0 1 0,0.029 1715.3964,1715.3964 0 0 1 0,0.015 1715.3964,1715.3964 0 0 1 0,0.029 1715.3964,1715.3964 0 0 1 0,0.029 1715.3964,1715.3964 0 0 1 0,0.029 1715.3964,1715.3964 0 0 1 0,0.015 1715.3964,1715.3964 0 0 1 0,0.029 1715.3964,1715.3964 0 0 1 0,0.029 1715.3964,1715.3964 0 0 1 0,0.029 1715.3964,1715.3964 0 0 1 0,0.015 1715.3964,1715.3964 0 0 1 0,0.029 1715.3964,1715.3964 0 0 1 0,0.029 1715.3964,1715.3964 0 0 1 0,0.029 1715.3964,1715.3964 0 0 1 0,0.015 1715.3964,1715.3964 0 0 1 0,0.029 1715.3964,1715.3964 0 0 1 0,0.029 1715.3964,1715.3964 0 0 1 0,0.029 1715.3964,1715.3964 0 0 1 0,0.015 1715.3964,1715.3964 0 0 1 0,0.029 1715.3964,1715.3964 0 0 1 0,0.029 1715.3964,1715.3964 0 0 1 0,0.029 1715.3964,1715.3964 0 0 1 0,0.015 1715.3964,1715.3964 0 0 1 0,0.029 1715.3964,1715.3964 0 0 1 0,0.029 1715.3964,1715.3964 0 0 1 0,0.029 1715.3964,1715.3964 0 0 1 0,0.015 1715.3964,1715.3964 0 0 1 0,0.029 1715.3964,1715.3964 0 0 1 0,0.029 1715.3964,1715.3964 0 0 1 0,0.029 1715.3964,1715.3964 0 0 1 0,0.015 1715.3964,1715.3964 0 0 1 0,0.029 1715.3964,1715.3964 0 0 1 0,0.029 1715.3964,1715.3964 0 0 1 0,0.029 1715.3964,1715.3964 0 0 1 0,0.015 1715.3964,1715.3964 0 0 1 0,0.029 1715.3964,1715.3964 0 0 1 0,0.029 1715.3964,1715.3964 0 0 1 0,0.029 1715.3964,1715.3964 0 0 1 -0.015,2.0801 1715.3964,1715.3964 0 0 1 0,0.029 1715.3964,1715.3964 0 0 1 -0.015,2.0654 1715.3964,1715.3964 0 0 1 0,0.029 1715.3964,1715.3964 0 0 1 -0.015,2.0801 1715.3964,1715.3964 0 0 1 0,0.029 1715.3964,1715.3964 0 0 1 -0.029,2.08 1715.3964,1715.3964 0 0 1 0,0.029 1715.3964,1715.3964 0 0 1 -0.015,2.0655 1715.3964,1715.3964 0 0 1 0,0.029 1715.3964,1715.3964 0 0 1 -0.029,2.08 1715.3964,1715.3964 0 0 1 0,0.029 1715.3964,1715.3964 0 0 1 -0.029,2.0801 1715.3964,1715.3964 0 0 1 0,0.029 1715.3964,1715.3964 0 0 1 -0.029,2.0654 1715.3964,1715.3964 0 0 1 0,0.029 1715.3964,1715.3964 0 0 1 -0.029,2.0801 1715.3964,1715.3964 0 0 1 0,0.029 1715.3964,1715.3964 0 0 1 -0.029,2.0801 1715.3964,1715.3964 0 0 1 0,0.029 1715.3964,1715.3964 0 0 1 -0.044,2.0654 1715.3964,1715.3964 0 0 1 0,0.029 1715.3964,1715.3964 0 0 1 -0.044,2.0801 1715.3964,1715.3964 0 0 1 0,0.029 1715.3964,1715.3964 0 0 1 -0.029,2.0801 1715.3964,1715.3964 0 0 1 0,0.029 1715.3964,1715.3964 0 0 1 -0.059,2.08 1715.3964,1715.3964 0 0 1 0,0.029 1715.3964,1715.3964 0 0 1 -0.044,2.0655 1715.3964,1715.3964 0 0 1 0,0.029 1715.3964,1715.3964 0 0 1 -0.044,2.08 1715.3964,1715.3964 0 0 1 0,0.029 1715.3964,1715.3964 0 0 1 -0.059,2.0801 1715.3964,1715.3964 0 0 1 0,0.029 1715.3964,1715.3964 0 0 1 -0.059,2.0654 1715.3964,1715.3964 0 0 1 0,0.029 1715.3964,1715.3964 0 0 1 -0.059,2.0801 1715.3964,1715.3964 0 0 1 0,0.029 1715.3964,1715.3964 0 0 1 -0.059,2.0654 1715.3964,1715.3964 0 0 1 0,0.029 1715.3964,1715.3964 0 0 1 -0.059,2.0801 1715.3964,1715.3964 0 0 1 0,0.029 1715.3964,1715.3964 0 0 1 -0.073,2.0801 1715.3964,1715.3964 0 0 1 0,0.029 1715.3964,1715.3964 0 0 1 -0.059,2.0654 1715.3964,1715.3964 0 0 1 0,0.029 1715.3964,1715.3964 0 0 1 -0.073,2.0801 1715.3964,1715.3964 0 0 1 0,0.029 1715.3964,1715.3964 0 0 1 -0.073,2.0801 1715.3964,1715.3964 0 0 1 0,0.029 1715.3964,1715.3964 0 0 1 -0.073,2.0654 1715.3964,1715.3964 0 0 1 0,0.029 1715.3964,1715.3964 0 0 1 -0.088,2.0801 1715.3964,1715.3964 0 0 1 0,0.029 1715.3964,1715.3964 0 0 1 -0.073,2.0654 1715.3964,1715.3964 0 0 1 0,0.029 1715.3964,1715.3964 0 0 1 -0.088,2.0801 1715.3964,1715.3964 0 0 1 0,0.029 1715.3964,1715.3964 0 0 1 -0.088,2.0801 1715.3964,1715.3964 0 0 1 0,0.029 1715.3964,1715.3964 0 0 1 -0.088,2.0655 1715.3964,1715.3964 0 0 1 0,0.029 1715.3964,1715.3964 0 0 1 -0.088,2.0801 1715.3964,1715.3964 0 0 1 0,0.029 1715.3964,1715.3964 0 0 1 -0.1025,2.0655 1715.3964,1715.3964 0 0 1 0,0.029 1715.3964,1715.3964 0 0 1 -0.088,2.0801 1715.3964,1715.3964 0 0 1 0,0.029 1715.3964,1715.3964 0 0 1 -0.1026,2.0654 1715.3964,1715.3964 0 0 1 0,0.029 1715.3964,1715.3964 0 0 1 -0.1025,2.0801 1715.3964,1715.3964 0 0 1 0,0.029 1715.3964,1715.3964 0 0 1 -6.1963,83.9355 1715.3964,1715.3964 0 0 1 0,0.029 1715.3964,1715.3964 0 0 1 -10.3125,83.54 1715.3964,1715.3964 0 0 1 0,0.029 1715.3964,1715.3964 0 0 1 -14.3847,82.9248 1715.3964,1715.3964 0 0 1 0,0.029 1715.3964,1715.3964 0 0 1 -18.4571,82.1192 1715.3964,1715.3964 0 0 1 0,0.029 1715.3964,1715.3964 0 0 1 -22.456,81.1084 1715.3964,1715.3964 0 0 1 0,0.029 1715.3964,1715.3964 0 0 1 -26.4112,79.9218 z m -1643.4814,831.958 a 1377.1187,1377.1187 0 0 0 74.5459,-2.0214 1377.1187,1377.1187 0 0 0 74.3408,-6.0498 1377.1187,1377.1187 0 0 0 73.9014,-10.0782 1377.1187,1377.1187 0 0 0 73.2422,-14.0478 1377.1187,1377.1187 0 0 0 72.3779,-18.0029 1377.1187,1377.1187 0 0 0 71.2939,-21.8848 1377.1187,1377.1187 0 0 0 70.0196,-25.7227 1377.1187,1377.1187 0 0 0 68.5107,-29.4726 1377.1187,1377.1187 0 0 0 66.8115,-33.1348 1377.1187,1377.1187 0 0 0 64.9219,-36.709 1377.1187,1377.1187 0 0 0 62.8418,-40.166 1377.1187,1377.1187 0 0 0 60.5859,-43.5205 1377.1187,1377.1187 0 0 0 58.125,-46.7285 1377.1187,1377.1187 0 0 0 55.5176,-49.8047 1377.1187,1377.1187 0 0 0 52.7344,-52.7344 1377.1187,1377.1187 0 0 0 49.8047,-55.5176 1377.1187,1377.1187 0 0 0 46.7285,-58.125 1377.1187,1377.1187 0 0 0 43.5205,-60.5712 1377.1187,1377.1187 0 0 0 40.166,-62.8418 1377.1187,1377.1187 0 0 0 36.709,-64.9366 1377.1187,1377.1187 0 0 0 33.1348,-66.8115 1377.1187,1377.1187 0 0 0 29.4726,-68.5107 1377.1187,1377.1187 0 0 0 25.7227,-70.0049 1377.1187,1377.1187 0 0 0 21.8848,-71.3086 1377.1187,1377.1187 0 0 0 18.0029,-72.3779 1377.1187,1377.1187 0 0 0 14.0478,-73.2422 1377.1187,1377.1187 0 0 0 10.0782,-73.9014 1377.1187,1377.1187 0 0 0 6.0498,-74.3408 1377.1187,1377.1187 0 0 0 2.0214,-74.5459 1377.1187,1377.1187 0 0 0 -16.9628,-215.4346 1377.1187,1377.1187 0 0 0 -50.4346,-210.1172 1377.1187,1377.1187 0 0 0 -82.7051,-199.6582 1377.1187,1377.1187 0 0 0 -112.9101,-184.248 1377.1187,1377.1187 0 0 0 -140.3321,-164.3115 1377.1187,1377.1187 0 0 0 -164.3262,-140.3467 1377.1187,1377.1187 0 0 0 -184.248,-112.9102 1377.1187,1377.1187 0 0 0 -199.6436,-82.6904 1377.1187,1377.1187 0 0 0 -210.1318,-50.44922 1377.1187,1377.1187 0 0 0 -215.4199,-16.96289 1377.1187,1377.1187 0 0 0 -215.4346,16.96289 1377.1187,1377.1187 0 0 0 -210.1318,50.44922 1377.1187,1377.1187 0 0 0 -199.6436,82.6904 1377.1187,1377.1187 0 0 0 -184.248,112.9102 1377.1187,1377.1187 0 0 0 -164.3262,140.3467 1377.1187,1377.1187 0 0 0 -140.332,164.3115 1377.1187,1377.1187 0 0 0 -112.9102,184.248 1377.1187,1377.1187 0 0 0 -82.7051,199.6582 1377.1187,1377.1187 0 0 0 -50.4345,210.1172 1377.1187,1377.1187 0 0 0 -16.9629,215.4346 1377.1187,1377.1187 0 0 0 16.9629,215.4199 1377.1187,1377.1187 0 0 0 50.4345,210.1318 1377.1187,1377.1187 0 0 0 82.7051,199.6436 1377.1187,1377.1187 0 0 0 112.9102,184.2481 1377.1187,1377.1187 0 0 0 140.332,164.3261 1377.1187,1377.1187 0 0 0 164.3262,140.3321 1377.1187,1377.1187 0 0 0 184.248,112.9101 1377.1187,1377.1187 0 0 0 199.6436,82.7051 1377.1187,1377.1187 0 0 0 210.1318,50.4346 1377.1187,1377.1187 0 0 0 215.4346,16.9628 z"
       style="fill-rule:evenodd;stroke-width:0.751177;stroke-dasharray:0, 8.26297"
       id="path57" />
    <path
       d="M2223 4770 c-36 -15 -43 -43 -43 -180 0 -126 1 -132 25 -155 22 -22 32 -25 105 -25 l81 0 -3 -127 -3 -127 -104 -18 c-239 -40 -516 -146 -702 -271 -25 -17 -27 -17 -52 9 -24 24 -25 28 -12 47 8 12 15 27 15 33 0 7 -56 76 -125 153 -101 113 -131 141 -152 141 -17 0 -66 -31 -147 -92 -248 -188 -306 -238 -306 -260 0 -21 58 -92 185 -226 66 -70 71 -74 106 -69 32 4 42 0 68 -27 17 -18 31 -36 31 -40 0 -4 -18 -28 -40 -53 -67 -76 -168 -237 -230 -366 -213 -441 -245 -914 -95 -1382 46 -142 157 -364 242 -485 100 -141 341 -379 473 -466 499 -331 1071 -411 1629 -228 236 77 495 229 654 382 l47 46 0 173 c0 94 -4 174 -8 177 -5 3 -37 -27 -71 -67 -228 -262 -544 -447 -889 -519 -92 -20 -137 -23 -322 -22 -184 0 -230 3 -316 22 -639 139 -1107 611 -1246 1255 -18 86 -22 134 -22 307 0 221 12 306 70 493 36 117 141 327 215 432 73 103 254 289 347 355 216 155 447 253 702 297 126 22 382 22 510 0 252 -43 493 -146 702 -299 46 -33 134 -112 196 -176 89 -91 115 -113 123 -102 5 8 9 88 9 177 l0 163 -92 77 c-248 206 -549 348 -858 405 l-120 22 0 128 0 128 84 0 c69 0 88 4 110 21 26 20 26 21 26 164 0 203 40 185 -414 184 -198 0 -371 -4 -383 -9z"
       id="path1"
       style="fill:#ffffff;fill-opacity:1"
       inkscape:label="Outline" />
    <path
       d="M 2538.6631,2448.4209 C 2469.9426,2416.9725 2435,2362.229 2435,2287.6848 c 0,-43.0959 6.9885,-69.8853 24.4598,-93.1804 32.6132,-44.2606 95.5099,-85.027 130.4525,-85.027 19.8008,0 83.8623,-51.2492 232.9509,-188.6902 497.35,-461.2427 669.7337,-613.8255 623.1435,-553.2583 -6.9885,6.9885 -156.0771,202.6673 -331.955,434.4534 l -320.3074,419.3115 -5.8238,66.391 c -11.6475,138.6057 -131.6172,216.6443 -249.2574,160.7361 z"
       id="path7"
       style="display:inline;fill:#ffffff;fill-opacity:1;stroke-width:1.16475"
       inkscape:label="Needle" />
  </g>
</svg>
