<?xml version="1.0" encoding="UTF-8" standalone="no"?>
<!-- Created with Inkscape (http://www.inkscape.org/) -->

<svg
   width="297mm"
   height="297mm"
   viewBox="0 0 297 297"
   version="1.1"
   id="svg5"
   sodipodi:docname="chronokeep.svg"
   inkscape:version="1.1 (c68e22c387, 2021-05-23)"
   inkscape:export-filename="G:\ChronoKeep\chronokeep_red_outline.png"
   inkscape:export-xdpi="43.790001"
   inkscape:export-ydpi="43.790001"
   xmlns:inkscape="http://www.inkscape.org/namespaces/inkscape"
   xmlns:sodipodi="http://sodipodi.sourceforge.net/DTD/sodipodi-0.dtd"
   xmlns="http://www.w3.org/2000/svg"
   xmlns:svg="http://www.w3.org/2000/svg">
  <sodipodi:namedview
     id="namedview7"
     pagecolor="#ffffff"
     bordercolor="#666666"
     borderopacity="1.0"
     inkscape:pageshadow="2"
     inkscape:pageopacity="0.0"
     inkscape:pagecheckerboard="true"
     inkscape:document-units="mm"
     showgrid="false"
     inkscape:zoom="0.70710678"
     inkscape:cx="436.99199"
     inkscape:cy="536.69405"
     inkscape:window-width="2213"
     inkscape:window-height="1177"
     inkscape:window-x="998"
     inkscape:window-y="331"
     inkscape:window-maximized="0"
     inkscape:current-layer="layer1"
     width="297mm" />
  <defs
     id="defs2">
    <linearGradient
       id="linearGradient10406"
       inkscape:swatch="solid">
      <stop
         style="stop-color:#006c86;stop-opacity:1;"
         offset="0"
         id="stop10404" />
    </linearGradient>
  </defs>
  <g
     inkscape:groupmode="layer"
     id="layer2"
     inkscape:label="Background"
     style="display:none">
    <rect
       style="fill:#e12416;fill-opacity:1;fill-rule:evenodd;stroke-width:0.264583"
       id="rect239"
       width="292.62915"
       height="293.15833"
       x="2.5816345"
       y="2.1166666"
       rx="25" />
  </g>
  <g
     inkscape:label="Icon"
     inkscape:groupmode="layer"
     id="layer1"
     style="display:inline">
    <path
       id="text3955"
       style="font-style:normal;font-weight:normal;font-size:278.625px;line-height:1.25;font-family:sans-serif;fill:#e12416;fill-opacity:1;stroke:none;stroke-width:30.6352"
       d="M 515.32422 28.28125 C 507.44458 28.28125 501.10156 36.709183 501.10156 47.177734 L 501.10156 95.1875 C 501.10156 105.65605 507.44458 114.08398 515.32422 114.08398 L 551.19141 114.08398 L 551.19141 203.91406 C 511.97469 208.50716 475.02412 216.70334 440.36328 228.53711 C 411.95193 238.30957 385.63774 250.31694 361.4043 264.54297 L 335.99219 237.50195 C 335.98123 237.22079 335.95933 236.94562 335.92188 236.67383 L 339.39648 233.99414 C 344.44532 230.10378 345.08544 223.14741 340.83203 218.40039 L 286.50586 157.76953 C 284.11333 155.09934 280.69939 153.71473 277.26953 153.70508 C 274.6019 153.69714 271.92568 154.52063 269.7168 156.22266 L 173.36523 230.46484 C 168.31639 234.35521 167.67434 241.30765 171.92773 246.05469 L 226.25586 306.69141 C 230.50925 311.43842 237.99803 312.12475 243.04688 308.23438 L 244.82227 306.86719 C 245.23683 306.62193 245.64537 306.35642 246.03711 306.05469 L 246.30664 305.84766 C 246.44569 305.91769 246.58785 305.983 246.73047 306.04688 L 274.00391 335.07617 C 243.58704 368.45986 219.52465 407.46299 201.81836 452.08398 C 179.99907 507.06991 169.08984 569.44931 169.08984 639.22461 C 169.08984 712.79206 180.41964 777.447 203.07812 833.19141 C 225.7366 888.55661 257.20653 934.25401 297.48828 970.2793 C 338.60924 1007.063 386.86257 1034.1753 442.25 1051.6191 C 498.05699 1068.6837 559.94838 1077.2168 627.92383 1077.2168 C 664.00955 1077.2168 696.94856 1074.5609 726.74023 1069.252 C 756.95159 1064.3222 784.85542 1058.2558 810.45117 1051.0508 C 840.66245 1042.3288 864.99847 1033.9869 883.46094 1026.0234 C 902.343 1018.06 923.32425 1009.5269 946.40234 1000.4258 L 946.40234 868.45898 L 937.58984 868.45898 C 917.09751 885.10992 895.92996 899.88985 874.08984 912.81055 L 920.36523 960.2207 L 795.10938 960.2207 L 787.92188 952.9082 C 736.15353 970.93092 680.72494 979.94727 621.63086 979.94727 C 577.99225 979.94727 536.45235 973.31155 497.00977 960.03906 C 475.13019 952.38476 454.76754 942.46366 435.92188 930.2793 L 435.92188 960.2207 L 339.42188 960.2207 L 339.42188 822.99219 C 334.37153 813.41101 329.62402 803.35247 325.18359 792.80664 C 307.56033 749.95553 298.74609 698.76113 298.74609 639.22461 C 298.74609 582.34257 306.72115 532.28699 322.66602 489.05664 C 327.66253 475.74148 333.25186 463.14132 339.42188 451.24023 L 339.42188 304.38086 L 435.92188 304.38086 L 435.92188 344.57812 C 453.51584 333.16111 472.19317 323.85411 491.97461 316.70312 C 530.15838 302.67223 572.95613 295.65625 620.37109 295.65625 C 674.44582 295.65625 725.40964 303.43148 773.26367 318.97461 L 788.28711 304.38086 L 905.25586 304.38086 L 853.48633 353.63086 C 881.18868 368.55482 909.01254 386.56355 936.96094 407.71484 L 946.40234 407.71484 L 946.40234 274.04102 C 885.14051 246.35843 829.33461 227.02062 778.98242 216.02344 C 736.10815 206.58075 693.0782 201.22161 649.89453 199.88672 L 649.89453 114.08398 L 688.74805 114.08398 C 696.62768 114.08398 702.9707 105.65605 702.9707 95.1875 L 702.9707 47.177734 C 702.9707 36.709183 696.62768 28.28125 688.74805 28.28125 L 515.32422 28.28125 z M 853.48633 353.63086 C 830.03213 340.9955 806.66648 330.56407 783.38867 322.39258 C 780.03022 321.21363 776.6533 320.07558 773.26367 318.97461 L 435.92188 646.61719 L 435.92188 344.57812 C 419.92778 354.95697 404.82502 367.0742 390.63867 380.97852 C 370.52613 400.73581 353.45978 424.16309 339.42188 451.24023 L 339.42188 822.99219 C 354.89276 852.34249 373.22147 877.17076 394.41602 897.46875 C 407.31963 909.79678 421.15568 920.73244 435.92188 930.2793 L 435.92188 737.79102 L 508.05078 668.19922 L 787.92188 952.9082 C 788.71815 952.63116 789.51406 952.35767 790.30859 952.07617 C 819.25838 941.82016 847.18535 928.72731 874.08984 912.81055 L 581.15625 612.70117 L 853.48633 353.63086 z "
       transform="scale(0.26458333)" />
    <path
       style="fill:#1a1a1a;fill-rule:evenodd;stroke-width:0.0401818"
       d=""
       id="path10372"
       transform="scale(0.26458333)" />
  </g>
</svg>
